# xmcd
#
# Track frame offsets:
#	150
#	14415
#	32337
#	52280
#	68105
#	88557
#	106425
#	121500
#	139292
#	153045
#	171622
#	188542
#	210862
#
# Disc length: 2996 seconds
# Revision: 0
# Processed by: cddbd v1.5.2PL0 Copyright (c) Steve Scherf et al.
# Submitted via: dBpowerAMP V12.0
#
DISCID=a50bb20d
DTITLE=Bet.E and Stef - Day by Day
DYEAR=2002
DGENRE=Jazz
TTITLE0=All Is Well
TTITLE1=Day by Day
TTITLE2=Regra Tres
TTITLE3=Vagabond
TTITLE4=I'm There
TTITLE5=Eu Vim da Bahia
TTITLE6=II N'Aurait Fallu
TTITLE7=Zana
TTITLE8=Sô Tinha de Ser Com Você
TTITLE9=It's Over
TTITLE10=Listen to to the Night
TTITLE11=Wish You Well
TTITLE12=Essa Moça Ta Differente
EXTD=
EXTT0=
EXTT1=
EXTT2=
EXTT3=
EXTT4=
EXTT5=
EXTT6=
EXTT7=
EXTT8=
EXTT9=
EXTT10=
EXTT11=
EXTT12=
PLAYORDER=
